<svg width="42" height="42" viewBox="0 0 40 40" fill="none" xmlns="http://www.w3.org/2000/svg">
<rect opacity="0.2" width="40" height="40" rx="13" fill="white"/>
<path opacity="0.8" fill-rule="evenodd" clip-rule="evenodd" d="M20 10C14.4772 10 10 14.4772 10 20C10 25.5228 14.4772 30 20 30C25.5228 30 30 25.5228 30 20C30 14.4772 25.5228 10 20 10ZM20 12C24.4183 12 28 15.5817 28 20C28 24.4183 24.4183 28 20 28C15.5817 28 12 24.4183 12 20C12 15.5817 15.5817 12 20 12ZM20 16C20.5523 16 21 16.4477 21 17V19H23C23.5523 19 24 19.4477 24 20C24 20.5523 23.5523 21 23 21H21V23C21 23.5523 20.5523 24 20 24C19.4477 24 19 23.5523 19 23V21H17C16.4477 21 16 20.5523 16 20C16 19.4477 16.4477 19 17 19H19V17C19 16.4477 19.4477 16 20 16Z" fill="white"/>
</svg>
